<!DOCTYPE svg PUBLIC "-//W3C//DTD SVG 1.1//EN" "http://www.w3.org/Graphics/SVG/1.1/DTD/svg11.dtd">
<!-- Uploaded to: SVG Repo, www.svgrepo.com, Transformed by: SVG Repo Mixer Tools -->
<svg width="64px" height="64px" viewBox="-1.4 -1.4 16.80 16.80" id="meteor-icon-kit__solid-bars-s" fill="none" xmlns="http://www.w3.org/2000/svg" stroke="#000" stroke-width="0.00014">
<g id="SVGRepo_bgCarrier" stroke-width="0"/>
<g id="SVGRepo_tracerCarrier" stroke-linecap="round" stroke-linejoin="round" stroke="#000CCCCCC" stroke-width="0.14"/>
<g id="SVGRepo_iconCarrier">
<path fill-rule="evenodd" clip-rule="evenodd" d="M1.5 3.5C0.67157 3.5 0 2.82843 0 2C0 1.17157 0.67157 0.5 1.5 0.5H12.5C13.3284 0.5 14 1.17157 14 2C14 2.82843 13.3284 3.5 12.5 3.5H1.5zM1.5 8.5C0.67157 8.5 0 7.8284 0 7C0 6.1716 0.67157 5.5 1.5 5.5H12.5C13.3284 5.5 14 6.1716 14 7C14 7.8284 13.3284 8.5 12.5 8.5H1.5zM1.5 13.5C0.67157 13.5 0 12.8284 0 12C0 11.1716 0.67157 10.5 1.5 10.5H12.5C13.3284 10.5 14 11.1716 14 12C14 12.8284 13.3284 13.5 12.5 13.5H1.5z" fill="#000"/>
</g>
</svg>